<svg width="205" height="66" viewBox="0 0 205 66" fill="none" xmlns="http://www.w3.org/2000/svg">
<g filter="url(#filter0_d_133_19)">
<path d="M65.5156 42.4844H70.2031V27.25H65.5156C63.1719 27.25 62 26.0781 62 23.7344V11.9922C62 9.66406 63.1719 8.5 65.5156 8.5H70.2266C72.5547 8.5 73.7188 9.67188 73.7188 12.0156V19.0469H70.2031V12.0156H65.5156V23.7344H70.2266C72.5391 23.7344 73.7031 24.9062 73.7188 27.25V42.4844C73.6562 44.8281 72.4844 46 70.2031 46H65.5156C63.1719 46 62 44.8281 62 42.4844V35.4531H65.5156V42.4844ZM77.2344 46V20.2188H80.75V46H77.2344ZM77.2344 16.7031V13.1875H80.75V16.7031H77.2344ZM87.7812 42.4844H92.4688V23.7344H87.7812V42.4844ZM92.4688 54.2031V45.4141C92.0781 45.8047 91.6875 46 91.2969 46H87.7578C85.4297 46 84.2656 44.8281 84.2656 42.4844V23.7344C84.2812 21.3906 85.4922 20.2188 87.8984 20.2188H91.2969C91.6875 20.2188 92.0781 20.4141 92.4688 20.8047V20.2188H95.9844V54.2031C95.9844 56.5469 94.8125 57.7188 92.4688 57.7188H87.7812C85.4375 57.7188 84.2656 56.5469 84.2656 54.2031V50.6875H87.7812V54.2031H92.4688ZM103.016 42.4844H107.703V27.25H103.016C100.672 27.25 99.5 26.0781 99.5 23.7344V11.9922C99.5 9.66406 100.672 8.5 103.016 8.5H107.727C110.055 8.5 111.219 9.67188 111.219 12.0156V19.0469H107.703V12.0156H103.016V23.7344H107.727C110.039 23.7344 111.203 24.9062 111.219 27.25V42.4844C111.156 44.8281 109.984 46 107.703 46H103.016C100.672 46 99.5 44.8281 99.5 42.4844V35.4531H103.016V42.4844ZM118.25 42.4844H122.938L122.961 38.9688L126.453 38.9922V42.4844C126.438 44.8281 125.227 46 122.82 46H118.273C115.914 46 114.734 44.8281 114.734 42.4844V23.7344C114.734 21.3906 115.914 20.2188 118.273 20.2188H122.961C125.289 20.2188 126.453 21.3906 126.453 23.7344V27.25H122.961V23.7344H118.25V42.4844ZM133.484 42.4844H138.195L138.172 35.4531H133.484V42.4844ZM141.664 46H133.32C131.086 46 129.969 44.8203 129.969 42.4609L129.992 35.4297C129.992 33.1172 131.156 31.9453 133.484 31.9141L138.172 31.9375V23.7344H133.484L133.555 27.2969H130.039V23.7578C130.039 21.4453 131.219 20.2891 133.578 20.2891L138.172 20.2188C140.5 20.2188 141.672 21.3906 141.688 23.7344L141.664 46ZM145.203 46V8.5H148.719V46H145.203ZM155.75 35.4531V42.4844H160.438L160.461 38.9688L163.953 38.9922V42.4844C163.938 44.8281 162.727 46 160.32 46H155.773C153.414 46 152.234 44.8281 152.234 42.4844V23.7344C152.234 21.3906 153.414 20.2188 155.773 20.2188H160.461C162.789 20.2188 163.953 21.3906 163.953 23.7344V31.9375C163.953 34.2812 162.781 35.4531 160.438 35.4531H155.75ZM160.461 26.6641V23.7344H155.75V31.9375H160.438V26.6641H160.461Z" fill="white"/>
</g>
<path d="M37.1603 18.312L32.7885 8.11111L16.7585 35.7992L21.1303 46L37.1603 18.312Z" fill="#1DF2BA"/>
<path d="M20.4017 8.11111L11.0653 25.5195L20.4017 46H9.33638L0 25.5195L9.33638 8.11111H20.4017Z" fill="#F9A418"/>
<path d="M33.5171 46L42.1866 28.5916L33.5171 8.11111L43.7921 8.11111L52.4615 28.5916L43.7921 46L33.5171 46Z" fill="#F9A418"/>
<defs>
<filter id="filter0_d_133_19" x="58" y="8.5" width="109.953" height="57.2188" filterUnits="userSpaceOnUse" color-interpolation-filters="sRGB">
<feFlood flood-opacity="0" result="BackgroundImageFix"/>
<feColorMatrix in="SourceAlpha" type="matrix" values="0 0 0 0 0 0 0 0 0 0 0 0 0 0 0 0 0 0 127 0" result="hardAlpha"/>
<feOffset dy="4"/>
<feGaussianBlur stdDeviation="2"/>
<feComposite in2="hardAlpha" operator="out"/>
<feColorMatrix type="matrix" values="0 0 0 0 0 0 0 0 0 0 0 0 0 0 0 0 0 0 0.25 0"/>
<feBlend mode="normal" in2="BackgroundImageFix" result="effect1_dropShadow_133_19"/>
<feBlend mode="normal" in="SourceGraphic" in2="effect1_dropShadow_133_19" result="shape"/>
</filter>
</defs>
</svg>
