<svg width="44" height="69" viewBox="0 0 44 69" fill="none" xmlns="http://www.w3.org/2000/svg">
<path d="M30.2442 0.066205C29.8456 0.183815 29.4662 0.357796 29.1176 0.582798L3.11974 13.4976C2.51047 13.6742 1.94767 13.9815 1.47114 14.398C0.994604 14.8145 0.615974 15.3299 0.362016 15.9077C0.108058 16.4856 -0.015027 17.1119 0.00146294 17.7422C0.0179528 18.3726 0.173615 18.9916 0.457444 19.5556C0.741273 20.1196 1.14634 20.6147 1.644 21.006C2.14167 21.3973 2.71978 21.6753 3.33746 21.8201C3.95514 21.965 4.59732 21.9733 5.21858 21.8444C5.83985 21.7155 6.42503 21.4526 6.93276 21.0743L32.9306 8.15949C33.8638 7.69838 34.5984 6.91855 34.9998 5.96296C35.4012 5.00736 35.4425 3.94004 35.1161 2.95666C34.7896 1.97329 34.1174 1.13975 33.2226 0.608863C32.3278 0.0779773 31.2703 -0.114682 30.2442 0.066205ZM38.9101 12.981C38.5116 13.0986 38.1322 13.2726 37.7835 13.4976L3.11974 30.7174C2.51047 30.8939 1.94767 31.2013 1.47114 31.6178C0.994604 32.0342 0.615974 32.5496 0.362016 33.1275C0.108058 33.7054 -0.015027 34.3316 0.00146294 34.962C0.0179528 35.5923 0.173615 36.2114 0.457444 36.7753C0.741273 37.3393 1.14634 37.8345 1.644 38.2258C2.14167 38.6171 2.71978 38.895 3.33746 39.0399C3.95514 39.1848 4.59732 39.1931 5.21858 39.0642C5.83985 38.9353 6.42503 38.6724 6.93276 38.2941L41.5965 21.0743C42.5297 20.6132 43.2643 19.8334 43.6657 18.8778C44.0671 17.9222 44.1084 16.8549 43.782 15.8715C43.4556 14.8881 42.7833 14.0546 41.8885 13.5237C40.9937 12.9928 39.9363 12.8001 38.9101 12.981ZM38.9101 30.2008C38.5116 30.3184 38.1322 30.4924 37.7835 30.7174L11.7857 43.6322C10.9471 44.0806 10.2805 44.791 9.88908 45.6535C9.49764 46.5161 9.40313 47.4828 9.62015 48.404C9.83717 49.3253 10.3536 50.1499 11.0897 50.7503C11.8258 51.3507 12.7404 51.6934 13.6922 51.7255H31.0241C31.5931 51.8159 32.1745 51.7941 32.735 51.6614C33.2956 51.5286 33.8243 51.2874 34.291 50.9516C34.7577 50.6158 35.1533 50.192 35.4552 49.7043C35.7571 49.2166 35.9593 48.6747 36.0503 48.1093C36.1414 47.544 36.1195 46.9664 35.9858 46.4095C35.8522 45.8526 35.6094 45.3272 35.2715 44.8635C34.9335 44.3998 34.5069 44.0068 34.016 43.7069C33.5252 43.407 32.9796 43.206 32.4106 43.1156L41.5965 38.2941C42.5297 37.833 43.2643 37.0531 43.6657 36.0975C44.0671 35.1419 44.1084 34.0746 43.782 33.0912C43.4556 32.1079 42.7833 31.2743 41.8885 30.7434C40.9937 30.2125 39.9363 30.0199 38.9101 30.2008ZM16.7253 60.3354C15.5761 60.518 14.547 61.1468 13.8645 62.0833C13.1819 63.0198 12.9017 64.1873 13.0856 65.3291C13.2694 66.4708 13.9023 67.4932 14.8449 68.1714C15.7875 68.8495 16.9627 69.1279 18.1118 68.9452H26.7778C27.927 68.9452 29.0291 68.4917 29.8416 67.6843C30.6542 66.877 31.1107 65.782 31.1107 64.6403C31.1107 63.4985 30.6542 62.4036 29.8416 61.5962C29.0291 60.7889 27.927 60.3354 26.7778 60.3354H18.1118C17.8524 60.3121 17.5913 60.3121 17.3319 60.3354C17.1587 60.325 16.9851 60.325 16.8119 60.3354H16.7253Z" fill="white"/>
</svg>
