<svg width="32" height="50" viewBox="0 0 32 50" fill="none" xmlns="http://www.w3.org/2000/svg">
<path d="M21.9957 0.0479746C21.7059 0.133199 21.43 0.259273 21.1764 0.422317L2.2689 9.78088C1.82579 9.90882 1.41649 10.1316 1.06992 10.4333C0.723348 10.7351 0.447981 11.1086 0.263284 11.5274C0.0785876 11.9461 -0.0109287 12.3999 0.00106395 12.8567C0.0130566 13.3134 0.126266 13.762 0.332687 14.1707C0.539108 14.5794 0.833701 14.9382 1.19564 15.2218C1.55758 15.5053 1.97802 15.7067 2.42724 15.8117C2.87647 15.9167 3.3435 15.9227 3.79533 15.8293C4.24716 15.7359 4.67275 15.5454 5.04201 15.2712L23.9495 5.91267C24.6282 5.57854 25.1625 5.01344 25.4544 4.32098C25.7463 3.62852 25.7763 2.8551 25.5389 2.14251C25.3016 1.42992 24.8127 0.825904 24.1619 0.441205C23.5111 0.0565053 22.7421 -0.0831029 21.9957 0.0479746ZM28.2983 9.40654C28.0084 9.49176 27.7325 9.61783 27.4789 9.78088L2.2689 22.259C1.82579 22.3869 1.41649 22.6096 1.06992 22.9114C0.723348 23.2132 0.447981 23.5867 0.263284 24.0054C0.0785876 24.4242 -0.0109287 24.878 0.00106395 25.3348C0.0130566 25.7915 0.126266 26.2401 0.332687 26.6488C0.539108 27.0575 0.833701 27.4163 1.19564 27.6998C1.55758 27.9834 1.97802 28.1848 2.42724 28.2898C2.87647 28.3948 3.3435 28.4008 3.79533 28.3074C4.24716 28.214 4.67275 28.0235 5.04201 27.7493L30.252 15.2712C30.9307 14.9371 31.465 14.372 31.7569 13.6795C32.0488 12.9871 32.0788 12.2137 31.8415 11.5011C31.6041 10.7885 31.1152 10.1845 30.4644 9.79977C29.8136 9.41507 29.0446 9.27546 28.2983 9.40654ZM28.2983 21.8846C28.0084 21.9698 27.7325 22.0959 27.4789 22.259L8.57141 31.6175C7.96151 31.9425 7.47674 32.4572 7.19206 33.0823C6.90737 33.7073 6.83864 34.4078 6.99647 35.0754C7.15431 35.743 7.52992 36.3405 8.06524 36.7756C8.60055 37.2106 9.26575 37.459 9.95796 37.4822H22.563C22.9768 37.5478 23.3996 37.532 23.8073 37.4358C24.215 37.3396 24.5995 37.1648 24.9389 36.9215C25.2784 36.6781 25.5661 36.371 25.7856 36.0176C26.0051 35.6642 26.1522 35.2715 26.2184 34.8618C26.2846 34.4522 26.2687 34.0336 26.1715 33.63C26.0743 33.2265 25.8978 32.8458 25.652 32.5098C25.4062 32.1738 25.0959 31.889 24.7389 31.6716C24.3819 31.4543 23.9852 31.3087 23.5714 31.2432L30.252 27.7493C30.9307 27.4152 31.465 26.8501 31.7569 26.1576C32.0488 25.4652 32.0788 24.6917 31.8415 23.9792C31.6041 23.2666 31.1152 22.6625 30.4644 22.2778C29.8136 21.8932 29.0446 21.7535 28.2983 21.8846ZM12.1638 43.7213C11.3281 43.8536 10.5797 44.3093 10.0832 44.9879C9.58682 45.6665 9.38306 46.5126 9.51678 47.3399C9.65051 48.1673 10.1108 48.9081 10.7963 49.3996C11.4818 49.891 12.3365 50.0927 13.1722 49.9603H19.4747C20.3105 49.9603 21.112 49.6316 21.703 49.0466C22.294 48.4616 22.626 47.6681 22.626 46.8408C22.626 46.0134 22.294 45.22 21.703 44.635C21.112 44.0499 20.3105 43.7213 19.4747 43.7213H13.1722C12.9835 43.7044 12.7937 43.7044 12.605 43.7213C12.4791 43.7138 12.3528 43.7138 12.2269 43.7213H12.1638Z" fill="#F9A418"/>
</svg>
