<svg width="25" height="25" viewBox="0 0 25 25" fill="none" xmlns="http://www.w3.org/2000/svg">
<path d="M5.97485 17.1177H4.97485C4.44442 17.1177 3.93571 16.907 3.56064 16.5319C3.18557 16.1568 2.97485 15.6481 2.97485 15.1177V5.11768C2.97485 4.58724 3.18557 4.07853 3.56064 3.70346C3.93571 3.32839 4.44442 3.11768 4.97485 3.11768H20.9749C21.5053 3.11768 22.014 3.32839 22.3891 3.70346C22.7641 4.07853 22.9749 4.58724 22.9749 5.11768V15.1177C22.9749 15.6481 22.7641 16.1568 22.3891 16.5319C22.014 16.907 21.5053 17.1177 20.9749 17.1177H19.9749" stroke="black" stroke-width="2" stroke-linecap="round" stroke-linejoin="round"/>
<path d="M12.9749 15.1177L17.9749 21.1177H7.97485L12.9749 15.1177Z" stroke="#F9A418" stroke-width="2" stroke-linecap="round" stroke-linejoin="round"/>
</svg>
