<svg width="25" height="25" viewBox="0 0 25 25" fill="none" xmlns="http://www.w3.org/2000/svg">
<path d="M16.3917 8.04321C17.983 8.04321 19.5091 8.67535 20.6344 9.80057C21.7596 10.9258 22.3917 12.4519 22.3917 14.0432V21.0432H18.3917V14.0432C18.3917 13.5128 18.181 13.0041 17.8059 12.629C17.4309 12.2539 16.9222 12.0432 16.3917 12.0432C15.8613 12.0432 15.3526 12.2539 14.9775 12.629C14.6024 13.0041 14.3917 13.5128 14.3917 14.0432V21.0432H10.3917V14.0432C10.3917 12.4519 11.0239 10.9258 12.1491 9.80057C13.2743 8.67535 14.8004 8.04321 16.3917 8.04321V8.04321Z" stroke="#F9A418" stroke-width="2" stroke-linecap="round" stroke-linejoin="round"/>
<path d="M6.39172 9.04321H2.39172V21.0432H6.39172V9.04321Z" stroke="#F9A418" stroke-width="2" stroke-linecap="round" stroke-linejoin="round"/>
<path d="M4.39172 6.04321C5.49629 6.04321 6.39172 5.14778 6.39172 4.04321C6.39172 2.93864 5.49629 2.04321 4.39172 2.04321C3.28715 2.04321 2.39172 2.93864 2.39172 4.04321C2.39172 5.14778 3.28715 6.04321 4.39172 6.04321Z" stroke="#F9A418" stroke-width="2" stroke-linecap="round" stroke-linejoin="round"/>
</svg>
