<svg width="15" height="14" viewBox="0 0 15 14" fill="none" xmlns="http://www.w3.org/2000/svg">
<path d="M7.5 5.89286H8.57143V6.96429H7.5V5.89286ZM9.64286 5.89286H10.7143V6.96429H9.64286V5.89286ZM11.7857 5.89286H12.8571V6.96429H11.7857V5.89286ZM7.5 8.03571H8.57143V9.10714H7.5V8.03571ZM9.64286 8.03571H10.7143V9.10714H9.64286V8.03571ZM11.7857 8.03571H12.8571V9.10714H11.7857V8.03571ZM7.5 10.1786H8.57143V11.25H7.5V10.1786ZM9.64286 10.1786H10.7143V11.25H9.64286V10.1786ZM11.7857 10.1786H12.8571V11.25H11.7857V10.1786ZM7.5 3.75H12.8571V4.82143H7.5V3.75Z" fill="#F9A418"/>
<path d="M13.9286 1.60714H6.42857V1.07143C6.42829 0.787355 6.31531 0.514998 6.11444 0.314127C5.91357 0.113257 5.64122 0.000283648 5.35714 0H3.21429C2.93021 0.000283648 2.65785 0.113257 2.45698 0.314127C2.25611 0.514998 2.14314 0.787355 2.14286 1.07143V1.60714H1.07143C0.787355 1.60743 0.514998 1.7204 0.314127 1.92127C0.113257 2.12214 0.000283648 2.3945 0 2.67857V12.3214C0.000283648 12.6055 0.113257 12.8779 0.314127 13.0787C0.514998 13.2796 0.787355 13.3926 1.07143 13.3929H13.9286C14.2126 13.3926 14.485 13.2796 14.6859 13.0787C14.8867 12.8779 14.9997 12.6055 15 12.3214V2.67857C14.9997 2.3945 14.8867 2.12214 14.6859 1.92127C14.485 1.7204 14.2126 1.60743 13.9286 1.60714ZM3.21429 1.07143H5.35714V10.1786H3.21429V1.07143ZM13.9286 12.3214H1.07143V2.67857H2.14286V10.1786C2.14314 10.4626 2.25611 10.735 2.45698 10.9359C2.65785 11.1367 2.93021 11.2497 3.21429 11.25H5.35714C5.64122 11.2497 5.91357 11.1367 6.11444 10.9359C6.31531 10.735 6.42829 10.4626 6.42857 10.1786V2.67857H13.9286V12.3214Z" fill="#F9A418"/>
</svg>
