<svg width="657" height="657" viewBox="0 0 657 657" fill="none" xmlns="http://www.w3.org/2000/svg">
<path d="M647.338 278.768C629.532 162.331 556.518 19.2788 412.277 4.3065C412.277 4.3065 302.761 -8.99986 194.801 11.167C130.729 23.1392 74.5463 58.769 38.9955 109.98C3.44466 161.191 -8.43092 223.638 5.98062 283.171C15.3416 321.839 21.6661 361.858 19.9296 401.592C16.9073 470.745 18.6462 535.293 85.8265 576.532C145.812 613.356 221.302 645.832 293.322 651.519C342.266 655.384 397.154 649.131 444.326 636.4C684.734 571.527 665.146 395.208 647.338 278.768Z" fill="#F4F7FA"/>
<path d="M261.519 603.766C274.251 583.658 290.606 550.765 285.776 513.129C277.349 447.466 213.936 441.267 184.216 362.175C160.247 298.383 188.857 268.765 153.747 218.268C147.871 209.815 117.29 164.042 78.667 167.507C56.9038 169.459 42.2455 186.155 39.496 189.287C-2.08509 236.657 17.5597 346.634 74.0624 417.015C106.527 457.45 123.232 455.78 186.057 513.489C222.974 547.398 247.16 581.196 261.519 603.766Z" fill="url(#paint0_linear_271_3)"/>
<path d="M257.747 632.623L256.758 632.426C267.817 576.475 262.15 533.378 239.917 504.332C229.066 490.156 218.194 484.039 206.684 477.565C194.125 470.501 181.139 463.195 167.715 444.675C154.653 426.655 152.689 413.818 150.2 397.566C147.987 383.112 145.235 365.123 133.545 337.781C123.299 313.81 113.995 300.684 105.787 289.101C96.8124 276.434 89.7217 266.431 84.7542 247.122C76.6576 215.656 80.069 181.166 94.8909 144.608L95.8256 144.987C81.0867 181.342 77.6896 215.621 85.7316 246.869C90.654 265.998 97.6973 275.934 106.612 288.515C114.849 300.139 124.184 313.313 134.475 337.38C146.215 364.841 148.979 382.899 151.199 397.409C153.666 413.526 155.614 426.257 168.533 444.08C181.83 462.422 194.716 469.671 207.182 476.684C218.785 483.21 229.745 489.376 240.721 503.716C263.137 533.006 268.866 576.376 257.747 632.623Z" fill="white"/>
<path d="M110.225 294.594L109.594 294.35C69.2182 278.719 45.9676 251.156 33.5749 230.783C20.1431 208.71 16.2051 190.07 16.1671 189.885L17.1564 189.681C17.1943 189.866 21.1062 208.364 34.4573 230.294C46.7077 250.414 69.6239 277.602 109.336 293.167C110.111 285.235 118.445 210.04 156.029 192.243L156.463 193.155C117.499 211.606 110.349 293.101 110.282 293.921L110.225 294.594Z" fill="white"/>
<path d="M144.078 367.361C140.975 367.361 120.004 367.031 93.4533 358.706C67.0144 350.414 29.459 332.269 0.699951 292.911L1.51601 292.316C30.1042 331.439 67.4343 349.483 93.719 357.732C120.018 365.986 140.799 366.349 144.021 366.353C149.707 324.474 181.256 275.28 181.576 274.787L182.425 275.335C182.105 275.827 150.459 325.174 144.965 366.922L144.908 367.353L144.474 367.363C144.457 367.358 144.322 367.361 144.078 367.361Z" fill="white"/>
<path d="M166.78 473.598C143.382 473.598 107.704 469.532 66.4237 451.028L66.8364 450.109C136.062 481.136 189.39 471.423 195.186 470.223C181.725 423.259 217.039 370.692 217.4 370.164L218.235 370.733C217.876 371.259 182.572 423.828 196.305 470.458L196.455 470.968L195.938 471.091C195.698 471.148 184.933 473.598 166.78 473.598Z" fill="white"/>
<path d="M393.228 570.8C380.707 553.593 364.625 525.442 369.367 493.225C377.639 437.023 439.98 431.71 469.185 364.01C492.74 309.407 464.609 284.062 499.116 240.835C504.893 233.6 534.949 194.418 572.917 197.378C594.313 199.046 608.724 213.334 611.429 216.016C652.315 256.554 633.019 350.687 577.482 410.931C545.572 445.544 529.149 444.115 467.397 493.518C431.113 522.548 407.34 551.481 393.228 570.8Z" fill="url(#paint1_linear_271_3)"/>
<path d="M396.94 595.495L397.913 595.327C387.033 547.441 392.596 510.553 414.447 485.689C425.111 473.553 435.798 468.318 447.114 462.775C459.459 456.728 472.224 450.471 485.419 434.617C498.257 419.192 500.186 408.204 502.629 394.293C504.802 381.92 507.507 366.524 518.993 343.12C529.064 322.602 538.206 311.367 546.274 301.452C555.097 290.61 562.064 282.046 566.946 265.519C574.903 238.589 571.544 209.068 556.966 177.78L556.046 178.104C570.543 209.22 573.885 238.558 565.983 265.303C561.146 281.676 554.224 290.184 545.463 300.952C537.367 310.9 528.193 322.178 518.08 342.779C506.544 366.285 503.83 381.74 501.647 394.16C499.225 407.955 497.311 418.851 484.614 434.108C471.546 449.808 458.878 456.014 446.625 462.019C435.219 467.607 424.447 472.887 413.657 485.163C391.626 510.235 386.002 547.355 396.94 595.495Z" fill="white"/>
<path d="M541.914 306.158L542.533 305.95C582.224 292.565 605.076 268.972 617.257 251.532C630.457 232.638 634.326 216.685 634.364 216.526L633.391 216.353C633.356 216.512 629.51 232.344 616.389 251.115C604.35 268.339 581.823 291.613 542.787 304.938C542.023 298.148 533.818 233.792 496.87 218.564L496.443 219.343C534.75 235.131 541.793 304.881 541.86 305.582L541.914 306.158Z" fill="white"/>
<path d="M508.645 368.443C511.696 368.443 532.314 368.159 558.411 361.028C584.402 353.928 621.319 338.392 649.584 304.701L648.783 304.191C620.685 337.681 583.989 353.13 558.15 360.194C532.297 367.261 511.867 367.576 508.702 367.578C503.106 331.733 472.082 289.634 471.769 289.212L470.934 289.681C471.247 290.103 502.368 332.335 507.775 368.064L507.832 368.432L508.259 368.439C508.273 368.441 508.406 368.443 508.645 368.443Z" fill="white"/>
<path d="M486.344 459.375C509.345 459.372 544.419 455.886 584.999 440.042L584.591 439.255C516.543 465.823 464.113 457.514 458.415 456.488C471.641 416.29 436.915 371.301 436.562 370.851L435.741 371.337C436.094 371.787 470.808 416.775 457.314 456.69L457.167 457.126L457.677 457.23C457.915 457.282 468.497 459.377 486.344 459.375Z" fill="white"/>
<path d="M259.391 593.787C250.946 581.933 236.603 564.053 214.944 546.922C176.423 516.449 153.206 518.754 140.982 493.914C128.326 468.202 147.216 453.576 131.538 424.337C130.219 421.88 113.181 391.077 87.9971 391.791C70.3783 392.291 58.2346 407.945 52.534 415.292C30.4174 443.8 20.0411 495.196 46.2262 531.227C71.052 565.387 116.192 568.541 130.556 569.449C155.754 571.044 164.285 563.93 189.663 566.25C220.522 569.067 244.391 582.921 259.391 593.787Z" fill="url(#paint2_linear_271_3)"/>
<path d="M542.049 373.456C542.049 423.216 526.404 469.375 499.88 507.37C499.776 507.526 499.401 507.676 499.401 507.832V507.839C457.779 568.759 386.464 608.226 306.464 608.226C299.921 608.226 293.654 607.92 287.246 607.036C287.239 607.036 287.239 607.036 287.239 607.036C287.213 607.036 287.199 607.425 287.173 607.425C284.018 607.164 280.891 607.043 277.774 606.659C276.666 606.529 275.558 606.484 274.457 606.327C273.48 606.197 272.507 606.109 271.537 605.96C270.69 605.837 269.848 605.73 269.015 605.595C268.826 605.562 268.638 605.543 268.449 605.517C266.397 605.178 264.349 604.827 262.309 604.436C262.297 604.436 262.29 604.434 262.276 604.434C153.507 583.679 71.3248 488.158 71.3248 373.456C71.3248 349.203 74.8524 325.806 81.6821 303.793C82.752 300.343 84.0829 296.933 84.9677 293.553V293.546C87.6247 287.916 89.4062 282.387 91.8497 276.965C92.8342 274.797 93.9207 272.642 94.9573 270.507C100.686 258.774 107.4 247.589 114.927 237.051C115.61 236.093 116.322 235.143 117.019 234.193C119.809 230.403 122.72 226.706 125.735 223.092C130.252 217.675 135.008 212.462 139.988 207.473C152.95 194.477 167.428 182.986 183.127 173.294C187.984 170.294 192.963 167.459 198.047 164.817C210.359 158.397 223.302 153.039 236.774 148.859C258.881 141.991 282.383 138.292 306.751 138.292C362.794 138.292 414.262 157.85 454.681 190.506C484.413 214.53 508.593 245.629 523.807 281.249C527.209 289.205 529.507 297.383 533.049 305.755V305.763C533.049 305.8 532.643 305.827 532.658 305.867C539.087 327.268 542.049 349.959 542.049 373.456Z" fill="#D8DEE8"/>
<path d="M287.239 607.827V607.821H287.257L287.244 607.827C287.239 607.827 287.239 607.827 287.239 607.827Z" fill="white"/>
<path d="M358.037 452.742C352.987 459.851 337.358 468.979 347.962 486.909C358.474 504.794 347.232 508.147 339.999 506.474C332.732 504.82 310.143 503.896 313.908 514.15C317.661 524.416 324.133 528.264 315.858 532.229C307.589 536.175 304.087 546.481 295.623 560.666C287.216 574.878 267.234 562.586 273.15 576.833C279.055 591.085 283.662 589.704 283.109 599.633C282.979 602.361 284.791 605.159 287.242 607.823C284.086 607.562 280.92 607.242 277.779 606.858C276.671 606.728 275.563 606.586 274.462 606.429C273.485 606.299 272.512 606.162 271.542 606.012C270.695 605.889 269.853 605.759 269.02 605.621C268.83 605.588 268.88 605.557 268.69 605.531C266.669 605.192 265.621 604.828 262.964 604.444V604.437C261.192 602.756 262.302 600.934 262.57 598.967C265.21 580.634 239.889 568.037 235.645 555.19C231.474 542.376 235.593 534.734 234.627 524.115C233.635 513.515 237.106 499.46 231 490.528C224.894 481.627 200.274 478.646 195.589 460.683C190.871 442.76 201.845 415.915 206.108 411.346C210.318 406.775 185.725 385.98 174.018 385.316C162.261 384.601 166.965 360.955 147.086 364.555C127.168 368.045 91.3871 356.943 98.7791 345.004C104.878 335.167 115.119 313.467 81.6916 303.793C82.7591 300.343 84.0852 296.93 84.9701 293.551V293.544C87.627 287.913 89.4086 282.385 91.852 276.963C92.8365 274.794 93.923 272.64 94.9597 270.505C100.696 258.772 107.407 247.587 114.929 237.048C115.613 236.091 116.324 235.141 117.022 234.19C119.819 230.401 122.727 226.697 125.738 223.09C130.254 217.673 135.011 212.459 139.99 207.471C152.952 194.475 167.43 182.984 183.13 173.291C189.751 177.927 197.314 180.785 203.842 177.263C219.855 168.31 209.298 166.938 202.741 166.606C201.033 166.521 199.38 165.846 198.049 164.815C210.361 158.395 223.304 153.037 236.776 148.857C235.78 157.885 223.494 172.391 232.532 170.621C243.051 168.623 247.347 140.231 255.069 149.662C262.902 159.134 246.498 171.55 261.906 164.357C277.333 157.234 279.392 141.337 296.584 149.07C313.861 156.902 312.283 166.173 317.106 165.255C321.91 164.35 337.446 174.78 328.049 183.361C318.567 191.968 309.873 181.003 295.658 177.697C281.437 174.429 281.783 186.05 275.24 188.707C268.586 191.271 236.487 175.777 228.609 189.78C220.645 203.675 217.255 213.369 229.078 213.009C240.887 212.677 241.651 209.623 240.724 218.348C239.78 227.079 241.929 233.614 252.63 225.405C263.298 217.208 260.907 209.213 269.25 213.12C277.598 217.04 278.583 213.493 287.46 207.051C296.33 200.613 308.001 199.942 311.059 214.388C314.122 228.842 308.889 232.084 293.286 232.813C277.677 233.569 275.912 228.652 270.939 241.688C265.993 254.729 245.345 271.474 227.221 278.375C209.128 285.29 202.037 295.504 202.454 309.286C202.884 323.095 196.08 337.66 191.537 326.278C186.975 314.865 174.189 295.646 161.141 308.49C148.068 321.361 125.315 344.115 150.459 348.277C175.55 352.516 162.458 329.032 175.14 333.726C187.803 338.454 167.117 348.805 175.584 352.542C184.062 356.313 187.616 354.547 187.549 366.09C187.483 377.626 190.358 388.831 200.649 383.935C210.933 379.058 224.12 361.787 238.999 375.167C253.897 388.577 252.867 381.487 260.682 377.579C268.489 373.678 273.461 385.373 276.661 390.698C279.861 396.018 292.413 390.587 302.588 406.434C312.755 422.28 316.743 425.105 328.339 419.403C339.939 413.706 344.658 417.939 347.682 425.939C350.693 433.94 357.836 426.122 361.278 436.696C364.699 447.265 363.057 445.625 358.037 452.742Z" fill="white"/>
<path d="M397.742 260.751C389.524 243.134 430.244 245.113 437.44 246.466C444.68 247.67 461.665 234.408 463.822 228.242C466.037 222.031 469.674 224.981 482.56 224.803C495.439 224.666 484.059 221.756 469.883 217.087C455.734 212.433 467.831 211.964 454.788 201.677C449.178 197.172 450.943 193.342 454.684 190.498C484.415 214.523 508.171 245.622 523.382 281.242C522.953 281.112 522.547 281.041 522.17 281.034C513.151 280.982 511.163 261.059 506.515 257.18C501.934 253.305 506.646 268.123 507.768 274.211C508.895 280.306 505.298 275.18 500.801 280.773C496.284 286.373 488.13 286.477 487.395 278.079C486.645 269.699 480.733 261.471 468.737 257.642C456.738 253.814 446.357 256.957 436.607 260.715C426.907 264.41 406.019 278.233 397.742 260.751Z" fill="white"/>
<path d="M499.973 507.832C500.786 501.784 502.117 495.533 499.588 493.248C493.442 487.551 492.099 472.032 494.232 464.166C496.357 456.282 512.916 456.732 501.681 443.639C490.412 430.508 480.259 414.922 484.989 406.009C489.722 397.108 488.287 396.459 479.417 396.511C470.533 396.563 466.642 396.954 457.798 389.063C448.947 381.067 436.773 407.931 403.464 386.387C370.16 364.628 389.126 327.956 401.606 327.863C414.165 327.655 428.835 321.32 418.544 306.021C408.287 290.662 424.318 288.494 432.152 291.985C439.999 295.435 453.913 286.164 468.094 281.984C482.309 277.823 481.682 300.957 489.575 305.585C497.512 310.22 512.387 306.542 520.115 299.132C525.636 293.845 526.841 300.011 532.297 305.864C538.724 327.271 542.17 349.959 542.17 373.458C542.173 423.418 526.578 469.745 499.973 507.832Z" fill="white"/>
<path d="M440.395 231.427C440.403 231.413 450.781 226.732 447.019 219.192C443.292 211.649 437.38 188.536 433.06 195.819C428.714 203.136 435.122 217.343 433.722 223.472C432.311 229.624 432.273 232.842 440.395 231.427Z" fill="white"/>
<path d="M430.033 224.372C429.886 221.943 431.419 212.073 423.645 212.383C423.659 212.367 412.4 217.061 418.988 225.033C425.602 232.984 430.199 226.796 430.033 224.372Z" fill="white"/>
<path opacity="0.3" d="M541.423 373.043C541.423 422.804 526.091 468.963 499.567 506.958C499.463 507.114 499.401 507.263 499.401 507.42V507.427C456.894 568.347 386.151 607.629 306.151 607.629C299.608 607.629 293.028 607.131 286.62 606.247C286.613 606.247 286.613 606.247 286.613 606.247C286.587 606.247 286.575 606.828 286.547 606.828C283.391 606.567 280.265 606.536 277.148 606.152C276.04 606.022 274.932 606.027 273.831 605.87C272.854 605.74 271.884 605.676 270.911 605.527C270.064 605.403 269.222 605.313 268.389 605.176C268.199 605.143 268.012 605.128 267.822 605.102C265.77 604.763 263.723 604.415 261.683 604.024C261.671 604.024 261.664 604.022 261.65 604.022C161.068 584.829 83.2241 501.642 72.0721 398.535C95.6596 466.121 153.982 516.901 225.686 531.056H225.712C227.472 531.94 229.237 531.762 231.012 532.056C231.175 532.075 231.344 532.132 231.508 532.158C232.224 532.274 232.955 532.395 233.685 532.499C234.52 532.629 235.36 532.734 236.207 532.845C237.158 532.983 238.11 533.063 239.068 533.175C241.761 533.506 244.458 534.12 247.181 534.34C247.207 534.34 247.221 534.594 247.24 534.594C247.24 534.594 247.24 534.594 247.248 534.594C252.78 534.594 258.295 535.037 263.946 535.037C298.489 535.037 331.041 526.264 359.522 511.128C388.004 495.99 412.41 474.167 430.66 447.865C430.66 447.727 430.88 447.545 430.966 447.407C453.875 414.6 467.28 374.709 467.28 331.74C467.28 311.452 464.298 291.842 458.747 273.36C458.74 273.327 458.667 273.289 458.667 273.256V273.249C456.894 266.024 454.043 258.959 451.109 252.089C437.969 221.327 417.51 194.47 391.833 173.727C373.037 158.539 351.48 146.636 328.023 138.882C375.535 143.25 418.962 161.734 454.057 190.088C483.789 214.113 507.841 245.212 523.052 280.832C526.454 288.788 528.625 296.966 532.167 305.338V305.345C532.167 305.383 531.891 305.409 531.903 305.45C538.33 326.858 541.423 349.547 541.423 373.043Z" fill="#97A6B7"/>
<path d="M254.853 67.0728C258.54 64.684 255.18 57.7405 254.981 42.8227C254.737 24.5422 259.598 21.1344 255.695 13.9611C250.922 5.19049 238.904 1.56235 230.943 1.38935C229.187 1.35143 228.777 0.39404 214.067 4.19992C187.564 11.0557 180.928 3.707 169.06 11.0486C157.592 18.1438 162.614 25.9119 151.479 34.2299C133.431 47.714 114.45 33.135 101.55 44.4152C89.3493 55.084 89.067 82.2678 101.901 97.1027C116.45 113.919 142.685 108.866 160.268 105.532C163.967 104.831 182.655 100.911 202.11 86.5643C212.873 78.6278 220.263 70.1535 224.965 63.9091C226.068 62.6673 227.79 61.1649 230.063 60.9232C232.791 60.6317 234.983 62.3 236.041 63.0299C241.59 66.869 251.231 69.4165 254.853 67.0728Z" fill="url(#paint3_linear_271_3)"/>
<path d="M240.041 57.0533C244.78 52.7402 261.695 61.0535 272.904 72.0872C286.072 85.0499 285.061 95.5623 296.553 111.667C302.265 119.675 312.06 130.453 329.418 139.894C328.189 142.963 326.961 146.032 325.732 149.098C317.341 149.603 300.866 149.307 285.496 139.28C274.818 132.315 269.326 123.087 258.774 104.916C248.187 86.6804 234.117 62.4445 240.041 57.0533Z" fill="url(#paint4_linear_271_3)"/>
<path d="M343.562 310.502L338.172 299.063C337.406 297.438 336.212 296.051 334.718 295.054L332.049 293.269C332.049 293.269 325.67 293.101 324.676 297.106C324.463 302.194 334.36 313.559 340.618 318.071C341.657 318.82 343.137 319.82 344.039 319.306C345.564 318.436 344.494 313.756 343.562 310.502Z" fill="url(#paint5_linear_271_3)"/>
<path d="M333.432 287.048C332.583 291.954 333.657 294.513 334.815 295.947C335.629 296.956 342.24 307.843 339.524 309.602C338.3 310.395 329.902 299.978 329.086 298.383C328.348 296.937 327.869 297.279 327.826 293.34C327.798 290.748 327.271 288.66 326.856 287.354C329.05 287.252 331.24 287.15 333.432 287.048Z" fill="white"/>
<path d="M342.978 248.162C342.978 248.162 348.944 255.274 347.972 263.068C347.001 270.863 336.554 259.466 335.097 255.615C333.641 251.765 331.94 246.276 331.94 246.276C331.94 246.276 339.266 241.724 342.978 248.162Z" fill="url(#paint6_linear_271_3)"/>
<path d="M340.703 237.036C340.703 237.036 339.085 245.321 342.172 249.693C343.709 251.871 345.782 253.717 345.172 255.49C344.764 256.677 343.213 257.53 341.899 257.398C339.382 257.139 337.987 253.286 337.002 250.568C335.548 246.553 334.739 237.963 334.739 237.963L340.703 237.036Z" fill="white"/>
<path d="M335.949 244.02C337.783 243.352 339.619 242.686 341.453 242.018C344.314 235.487 347.808 224.761 346.641 211.725C343.64 178.197 312.599 160.431 309.15 158.53C300.692 162.77 292.126 168.749 291.815 176.287C291.426 185.749 304.331 190.752 316.463 204.592C323.746 212.898 331.527 225.273 335.949 244.02Z" fill="url(#paint7_linear_271_3)"/>
<path d="M333.971 290.883C340.032 267.227 338.483 247.926 336.734 236.807C334.092 220 328.716 185.813 305.866 173.064C300.877 170.279 293.744 167.786 285.05 160.047C277.79 153.584 273.176 146.785 270.391 141.998C239.834 133.043 211.649 136.673 199.211 153.044C197.774 154.935 194.178 159.04 193.48 165.09C191.91 178.74 205.337 195.176 220.403 198.608C239.552 202.971 250.661 183.328 267.625 189.863C272.37 191.69 276.396 196.222 284.442 205.281C294.679 216.806 300.434 227.441 302.612 231.697C309.095 244.369 314.01 253.722 314.727 265.846C314.893 268.671 314.992 274.375 318.304 280.529C320.847 285.252 324.292 288.402 326.854 290.347C329.228 290.527 331.598 290.705 333.971 290.883Z" fill="url(#paint8_linear_271_3)"/>
<path opacity="0.3" d="M193.482 165.09C194.178 159.04 197.776 154.935 199.214 153.044C211.652 136.673 239.837 133.043 270.394 141.998C273.179 146.788 277.793 153.584 285.052 160.047C293.746 167.786 300.88 170.279 305.869 173.064C319.82 180.849 327.252 196.624 331.53 211.559C325.181 201.727 319.749 199.113 315.543 199.068C309.524 199.001 306.834 204.141 299.649 203.44C291.967 202.691 290.212 196.345 283.985 195.617C282.12 195.399 279.828 195.686 277.074 197.15C273.399 193.307 270.659 191.029 267.63 189.863C250.666 183.328 239.557 202.971 220.408 198.608C205.339 195.176 191.912 178.742 193.482 165.09Z" fill="url(#paint9_linear_271_3)"/>
<path d="M318.138 183.645C314.679 183.462 309.354 183.356 302.929 183.989C272.439 186.998 264.034 202.065 238.836 205.741C232.874 206.611 206.333 210.483 194.837 195.155C186.584 184.15 187.832 165.189 196.861 157.731C200.68 154.575 204.464 154.662 228.931 154.883C238.145 154.966 247.359 154.997 256.573 155.113C295.575 155.608 303.036 152.911 310.132 159.355C313.441 162.364 318.283 168.822 318.138 183.645Z" fill="url(#paint10_linear_271_3)"/>
<path d="M235.799 58.6339C235.799 58.6339 205.012 49.6643 191.454 64.9968C188.966 67.8121 186.997 71.5137 185.564 78.6586C178.267 115.07 205.87 136.944 194.994 156.153C190.676 163.781 183.068 166.08 177.662 179.789C176.746 182.109 173.437 190.506 176.473 193.15C179.149 195.48 183.547 190.562 191.362 191.51C199.636 192.515 201.569 198.866 207.137 197.942C210.767 197.338 212.332 194.243 217.68 186.524C225.423 175.348 229.292 169.763 232.067 167.803C243.015 160.073 251.48 170.154 263.965 162.499C268.486 159.729 285.235 138.185 280.307 144.103C268.579 129.486 265.853 117.428 265.573 109.044C265.265 99.8516 267.92 95.6737 265.573 84.8082C265.573 84.8082 262.957 72.6844 253.517 62.2739C252.165 60.7809 250.55 59.224 235.799 58.6339Z" fill="url(#paint11_linear_271_3)"/>
<path d="M225.914 38.6851C226.331 40.6307 228.452 51.0719 224.177 53.7593C223.25 54.3422 221.468 54.6764 217.907 55.3423C215.575 55.7783 213.618 56.0461 212.238 56.212C212.437 57.9633 213.028 60.8118 215.051 63.4043C220.721 70.6725 232.091 68.7908 233.711 68.4946C239.431 67.4543 245.058 65.6888 246.417 64.6105C248.486 62.9683 250.113 61.736 251.076 60.4824C248.863 59.4136 244.396 56.5959 241.398 55.6741C239.156 54.9845 237.054 54.4939 235.14 54.1408C234.826 52.1241 234.511 50.1074 234.195 48.0907C231.432 44.9579 228.673 41.8227 225.914 38.6851Z" fill="white"/>
<path d="M225.712 43.8891C225.712 43.8891 226.485 51.5412 233.932 52.8896C240.598 54.0982 245.618 38.0026 242.206 33.8412C241.068 32.4525 238.259 31.1326 235.823 31.2013C234.11 31.2511 228.324 33.4526 227.515 39.2349C226.362 38.0216 224.927 37.6732 224.22 38.1803C223.321 38.8249 223.802 40.697 223.912 41.1212C224.289 42.5952 225.25 43.5052 225.712 43.8891Z" fill="white"/>
<path opacity="0.4" d="M280.31 144.105C278.898 142.347 277.624 140.626 276.462 138.944C269.993 136.778 264.397 135.972 259.882 135.754C249.7 135.261 244.123 137.654 237.194 133.488C229.327 128.758 230.72 122.194 223.126 118.528C215.137 114.672 209.486 119.03 201.8 117.623C197.157 116.772 191.502 113.67 185.732 104.624C190.152 126.407 203.005 142.005 194.994 156.155C190.676 163.784 183.068 166.082 177.662 179.792C176.746 182.112 173.437 190.508 176.473 193.153C179.149 195.482 183.547 190.565 191.362 191.513C199.636 192.517 201.569 198.869 207.137 197.944C210.767 197.34 212.332 194.245 217.68 186.527C225.423 175.351 229.292 169.765 232.067 167.805C243.015 160.075 251.48 170.156 263.965 162.502C268.489 159.729 285.237 138.188 280.31 144.105Z" fill="url(#paint12_linear_271_3)"/>
<path d="M289.588 147.842L219.929 151.229C218.97 151.276 218.095 151.788 217.587 152.603L215.658 155.693C214.7 157.231 215.853 159.215 217.665 159.146L291.452 156.338L289.588 147.842Z" fill="url(#paint13_linear_271_3)"/>
<path d="M362.039 109.091L290.074 110.485C287.944 110.525 285.994 111.684 284.943 113.535L260.022 157.336L336.027 154.312C338.113 154.229 340.018 153.101 341.09 151.312L364.179 112.779C365.161 111.134 363.954 109.054 362.039 109.091Z" fill="url(#paint14_linear_271_3)"/>
<path opacity="0.3" d="M284.941 113.535C285.994 111.684 287.944 110.525 290.072 110.485L291.649 110.454C291.884 112.774 292.598 114.897 294.019 116.611C298.458 121.962 305.828 118.661 311.325 124.324C317.362 130.545 311.785 137.951 317.182 143.74C322.864 149.833 332.049 144.873 342.608 148.771L341.087 151.309C340.015 153.098 338.113 154.226 336.025 154.309L260.02 157.333L284.941 113.535Z" fill="url(#paint15_linear_271_3)"/>
<path d="M225.605 145.517C226.512 143.126 227.418 140.735 228.326 138.342C218.306 135.598 204.447 131.543 190.232 126.469C188.007 125.675 185.362 124.689 184.494 122.35C182.062 115.786 197.515 108.982 203.524 94.65C209.08 81.3934 206.022 62.9944 199.574 60.8213C186.157 56.2997 138.579 115.461 155.571 140.401C165.174 154.497 194.787 156.741 225.605 145.517Z" fill="url(#paint16_linear_271_3)"/>
<path d="M228.324 138.342C234.615 135.003 242.145 138.425 242.631 138.655C244.014 139.306 246.026 140.467 248.059 142.541C248.289 142.854 251.017 146.631 250.023 147.842C249.226 148.812 246.14 148.008 242.432 145.705C240.878 145.487 238.563 145.288 235.789 145.541C230.699 146.01 228.367 147.617 226.516 146.231C225.162 145.217 224.701 143.07 225.188 141.472C225.712 139.757 227.259 138.906 228.324 138.342Z" fill="white"/>
<path d="M399.369 499.666C391.75 495.447 393.982 471.508 404.318 454.687C418.995 430.802 451.161 419.401 457.753 426.515C464.502 433.795 445.076 461.123 441.921 465.562C430.474 481.667 408.382 504.656 399.369 499.666Z" fill="url(#paint17_linear_271_3)"/>
<path d="M319.699 638.609C320.942 640.324 320.947 643.232 319.561 644.512C318.2 645.77 316.496 644.526 311.325 644.114C305.786 643.671 304.201 644.815 300.562 643.37C299.091 642.784 296.527 641.474 296.698 640.398C296.816 639.642 298.223 639.398 302.944 638.377C309.643 636.924 309.629 636.803 311.026 636.727C314.535 636.535 318.057 636.343 319.699 638.609Z" fill="url(#paint18_linear_271_3)"/>
<path d="M317.154 629.222L313.37 638.121C313.524 638.637 316.16 640.595 318.691 639.815L323.789 631.336L317.154 629.222Z" fill="url(#paint19_linear_271_3)"/>
<path d="M353.826 650.548C355.07 652.263 355.074 655.171 353.689 656.451C352.327 657.709 350.624 656.465 345.452 656.053C339.913 655.61 338.328 656.754 334.689 655.309C333.219 654.723 330.654 653.413 330.825 652.337C330.944 651.581 332.35 651.337 337.071 650.315C343.77 648.863 343.756 648.742 345.153 648.666C348.662 648.474 352.185 648.282 353.826 650.548Z" fill="url(#paint20_linear_271_3)"/>
<path d="M351.281 641.161L347.497 650.06C347.651 650.576 350.287 652.534 352.818 651.754L357.916 643.275L351.281 641.161Z" fill="url(#paint21_linear_271_3)"/>
<path d="M518.861 428.065C510.021 425.055 496.514 421.56 479.875 421.56C461.141 421.562 446.098 421.565 435.71 430.409C410.498 451.874 438.716 503.289 424.262 541.364C422.679 545.535 418.07 558.756 422.079 573.015C422.817 575.643 424.337 577.921 426.94 581.776C442.21 604.408 485.95 611.856 505.6 592.232C515.985 581.862 524.476 578.167 524.727 566.335C525.709 519.626 518.455 473.036 518.861 428.065Z" fill="url(#paint22_linear_271_3)"/>
<path opacity="0.3" d="M508.892 485.125C512.463 475.359 508.764 464.178 516.725 459.296C519.643 457.507 523.271 456.751 527.22 456.837C526.748 491.168 526.072 525.466 525.235 561.294C524.96 573.127 523.477 573.714 511.995 584.085C498.689 596.102 475.761 600.024 456.097 596.092C481.853 580.269 500.229 563.88 497.598 549.829C494.533 533.468 464.54 528.636 465.745 517.003C467.022 504.678 501.085 506.476 508.892 485.125Z" fill="url(#paint23_linear_271_3)"/>
<path d="M510.669 429.119C519.328 423.28 540.19 438.006 551.754 450.969C557.13 456.993 575.845 477.97 571.195 506.147C570.438 510.74 566.949 532.208 548.552 542.725C532.079 552.14 509.836 549.718 492.016 536.383C489.582 534.224 487.146 532.065 484.709 529.907C482.313 527.319 479.917 524.733 477.521 522.146C481.289 519.015 487.687 514.501 496.675 511.605C510.37 507.19 519.373 513.74 522.649 509.429C526.682 504.121 514.405 494.232 511.184 471.731C510.313 465.657 500.997 435.644 510.669 429.119Z" fill="url(#paint24_linear_271_3)"/>
<path d="M493.053 581.018C496.701 600.133 487.001 591.459 466.716 578.544C445.353 564.944 397.737 543.547 374.157 562.119C356.595 575.949 365.09 601.808 337.588 626.217C332.744 630.516 328.284 633.402 325.513 635.054C321.296 632.741 317.08 630.431 312.862 628.118C312.243 617.814 311.081 578.234 339.488 546.021C346.356 538.234 359.439 523.269 379.523 518.541C433.824 505.754 489.686 563.389 493.053 581.018Z" fill="url(#paint25_linear_271_3)"/>
<path d="M515.807 566.062C518.32 577.087 513.66 588.929 506.807 595.851C491.596 611.214 461.807 606.147 443.766 597.87C421.813 587.8 418.241 573.466 408.908 575.866C394.404 579.596 400.536 614.939 372.337 639.964C367.493 644.263 363.033 647.147 360.262 648.801C356.047 646.488 351.829 644.178 347.614 641.865C346.871 617.951 351.39 599.353 355.259 587.58C359.696 574.082 363.671 561.989 374.736 551.121C388.481 537.618 404.88 534.148 414.277 532.288C454.022 524.409 509.281 537.414 515.807 566.062Z" fill="url(#paint26_linear_271_3)"/>
<path d="M392.129 529.802L496.464 528.245L468.72 541.623L391.863 536.596L392.129 529.802Z" fill="url(#paint27_linear_271_3)"/>
<path d="M500.146 531.016C500.146 532.966 498.924 534.71 497.088 535.376L463.75 548.431L463.599 539.379L496.464 528.245C498.31 527.717 500.146 529.098 500.146 531.016Z" fill="url(#paint28_linear_271_3)"/>
<path d="M485.25 526.833C485.891 526.691 482.131 519.207 479.18 520.07C476.228 520.935 461.793 529.29 460.481 532.731C459.169 536.172 459.169 536.172 459.169 536.172C459.169 536.172 465.465 536.663 469.373 535.352C473.275 534.044 480.043 527.992 485.25 526.833Z" fill="url(#paint29_linear_271_3)"/>
<path d="M460.832 475.871L468.186 542.763C468.44 545.071 465.207 548.509 462.884 548.4L354.996 541.784C353.224 541.699 351.746 540.398 351.447 538.649L337.906 474.044C337.503 471.693 341.732 469.264 344.119 469.33L457.179 472.506C459.067 472.56 460.626 473.996 460.832 475.871Z" fill="url(#paint30_linear_271_3)"/>
<path d="M458.365 477.821L465.719 544.713C465.973 547.021 464.101 549.009 461.779 548.9L352.526 543.734C350.754 543.651 349.279 542.346 348.978 540.599L337.816 475.698C337.413 473.347 339.263 471.214 341.65 471.28L454.71 474.456C456.6 474.51 458.159 475.947 458.365 477.821Z" fill="url(#paint31_linear_271_3)"/>
<path opacity="0.3" d="M394.214 528.061C403.753 524.022 400.387 516.318 411.651 506.723C426.51 494.061 441.66 499.552 446.962 489.739C448.613 486.682 449.403 481.925 446.525 474.228L454.712 474.458C456.6 474.51 458.159 475.947 458.365 477.823L465.719 544.715C465.973 547.024 464.101 549.012 461.779 548.903L352.526 543.737C350.754 543.654 349.279 542.35 348.978 540.601L347.438 531.646C350.752 529.802 354.714 528.127 359.335 527.191C375.367 523.942 383.231 532.71 394.214 528.061Z" fill="url(#paint32_linear_271_3)"/>
<path d="M478.124 395.992C478.067 402.931 478.84 408.431 479.573 412.199C480.413 416.517 481.018 417.631 481.789 418.536C482.952 419.899 484.712 421.041 494.663 423.505C500.079 424.847 500.774 424.811 500.895 425.347C501.479 427.965 486.712 436.892 471.455 434.741C462.118 433.423 453.623 428.103 454.145 425.309C454.669 422.496 463.997 424.005 466.777 418.918C468.711 415.377 466.543 410.353 463.98 406.192C466.464 401.549 475.643 400.637 478.124 395.992Z" fill="url(#paint33_linear_271_3)"/>
<path d="M458.531 404.815C455.661 402.54 454.242 397.634 455.884 393.871C457.298 390.634 460.524 389.385 462.458 388.636C468.056 386.468 475.968 386.982 479.884 391.629C482.204 394.383 480.662 401.765 480.461 403.071C480.231 404.55 479.305 405.277 478.603 406.533C477.628 408.275 476.11 411.036 473.655 415.628C473.104 414.605 472.347 413.356 471.323 412.057C470.929 411.557 469.361 409.611 467.382 408.173C463.418 405.291 461.252 406.971 458.531 404.815Z" fill="url(#paint34_linear_271_3)"/>
<path d="M477.721 411.244C477.721 411.244 475.548 418.451 467.864 419.925C460.984 421.245 456.043 406.348 459.525 402.007C460.688 400.559 463.459 399.362 465.978 399.409C467.465 399.438 468.085 399.89 470.516 399.888C472.76 399.886 473.292 399.499 474.065 399.867C475.033 400.327 476.039 401.812 475.87 406.585C476.822 404.943 478.24 404.04 479.471 404.272C479.668 404.31 480.214 404.504 480.601 404.914C481.998 406.403 480.99 409.024 477.721 411.244Z" fill="url(#paint35_linear_271_3)"/>
<path d="M474.134 398.883C473.87 399.21 475.185 400.168 475.709 401.869C476.724 405.173 474.385 410.062 471.021 411.301C469.033 412.033 468.151 410.95 464.683 411.472C462.536 411.794 460.866 412.512 459.834 413.036C459.729 416.974 461.679 420.368 464.571 421.425C467.686 422.562 470.77 420.579 472.058 419.749C472.919 419.195 475.685 417.422 476.542 414.244C477.436 410.931 475.367 409.614 476.746 407.171C477.441 405.938 478.579 405.187 479.301 402.967C479.498 402.362 479.597 401.848 479.652 401.504C477.427 400.111 474.513 398.407 474.134 398.883Z" fill="url(#paint36_linear_271_3)"/>
<path d="M462.643 413.754C462.643 413.754 464.303 414.135 466.789 413.337C466.91 413.296 467.055 413.299 467.088 413.358C467.209 413.583 465.869 415.076 464.268 415.045C463.131 415.024 462.045 414.235 462.121 413.943C462.151 413.822 462.396 413.773 462.643 413.754Z" fill="#F4F7FA"/>
<defs>
<linearGradient id="paint0_linear_271_3" x1="1330.69" y1="2963.96" x2="1662.27" y2="3684.81" gradientUnits="userSpaceOnUse">
<stop offset="0.00359712" stop-color="#E38DDD"/>
<stop offset="1" stop-color="#9571F6"/>
</linearGradient>
<linearGradient id="paint1_linear_271_3" x1="1169.88" y1="1840.47" x2="1359.03" y2="2251.68" gradientUnits="userSpaceOnUse">
<stop stop-color="#FF9085"/>
<stop offset="1" stop-color="#FB6FBB"/>
</linearGradient>
<linearGradient id="paint2_linear_271_3" x1="36.4424" y1="432.758" x2="347.801" y2="687.69" gradientUnits="userSpaceOnUse">
<stop stop-color="#FFC444"/>
<stop offset="0.9964" stop-color="#F36F56"/>
</linearGradient>
<linearGradient id="paint3_linear_271_3" x1="265.619" y1="-3.65302" x2="69.7931" y2="129.5" gradientUnits="userSpaceOnUse">
<stop stop-color="#311944"/>
<stop offset="1" stop-color="#6B3976"/>
</linearGradient>
<linearGradient id="paint4_linear_271_3" x1="238.636" y1="102.568" x2="329.419" y2="102.568" gradientUnits="userSpaceOnUse">
<stop stop-color="#FFC444"/>
<stop offset="0.9964" stop-color="#F36F56"/>
</linearGradient>
<linearGradient id="paint5_linear_271_3" x1="348.053" y1="313.515" x2="324.137" y2="297.491" gradientUnits="userSpaceOnUse">
<stop stop-color="#311944"/>
<stop offset="1" stop-color="#6B3976"/>
</linearGradient>
<linearGradient id="paint6_linear_271_3" x1="348.08" y1="255.225" x2="331.94" y2="255.225" gradientUnits="userSpaceOnUse">
<stop stop-color="#311944"/>
<stop offset="1" stop-color="#6B3976"/>
</linearGradient>
<linearGradient id="paint7_linear_271_3" x1="324.96" y1="166.432" x2="305.343" y2="279.962" gradientUnits="userSpaceOnUse">
<stop stop-color="#AB316D"/>
<stop offset="1" stop-color="#792D3D"/>
</linearGradient>
<linearGradient id="paint8_linear_271_3" x1="297.2" y1="300.973" x2="269.304" y2="212.592" gradientUnits="userSpaceOnUse">
<stop stop-color="#AB316D"/>
<stop offset="1" stop-color="#792D3D"/>
</linearGradient>
<linearGradient id="paint9_linear_271_3" x1="297.198" y1="300.974" x2="269.301" y2="212.593" gradientUnits="userSpaceOnUse">
<stop stop-color="#AB316D"/>
<stop offset="1" stop-color="#792D3D"/>
</linearGradient>
<linearGradient id="paint10_linear_271_3" x1="257.869" y1="154.974" x2="238.297" y2="268.242" gradientUnits="userSpaceOnUse">
<stop stop-color="#AB316D"/>
<stop offset="1" stop-color="#792D3D"/>
</linearGradient>
<linearGradient id="paint11_linear_271_3" x1="175.219" y1="127.031" x2="281.209" y2="127.031" gradientUnits="userSpaceOnUse">
<stop stop-color="#FFC444"/>
<stop offset="0.9964" stop-color="#F36F56"/>
</linearGradient>
<linearGradient id="paint12_linear_271_3" x1="175.219" y1="151.329" x2="281.209" y2="151.329" gradientUnits="userSpaceOnUse">
<stop stop-color="#FFC444"/>
<stop offset="0.9964" stop-color="#F36F56"/>
</linearGradient>
<linearGradient id="paint13_linear_271_3" x1="291.452" y1="153.495" x2="215.313" y2="153.495" gradientUnits="userSpaceOnUse">
<stop stop-color="#40447E"/>
<stop offset="0.9964" stop-color="#3C3B6B"/>
</linearGradient>
<linearGradient id="paint14_linear_271_3" x1="340.143" y1="105.516" x2="290.276" y2="155.036" gradientUnits="userSpaceOnUse">
<stop stop-color="#40447E"/>
<stop offset="0.9964" stop-color="#3C3B6B"/>
</linearGradient>
<linearGradient id="paint15_linear_271_3" x1="340.143" y1="105.516" x2="290.276" y2="155.036" gradientUnits="userSpaceOnUse">
<stop stop-color="#40447E"/>
<stop offset="0.9964" stop-color="#3C3B6B"/>
</linearGradient>
<linearGradient id="paint16_linear_271_3" x1="150.07" y1="12.9746" x2="217.192" y2="217.941" gradientUnits="userSpaceOnUse">
<stop stop-color="#FFC444"/>
<stop offset="0.9964" stop-color="#F36F56"/>
</linearGradient>
<linearGradient id="paint17_linear_271_3" x1="434.837" y1="471.37" x2="420.836" y2="453.622" gradientUnits="userSpaceOnUse">
<stop stop-color="#AA80F9"/>
<stop offset="0.9964" stop-color="#6165D7"/>
</linearGradient>
<linearGradient id="paint18_linear_271_3" x1="298.424" y1="636.008" x2="319.853" y2="644.525" gradientUnits="userSpaceOnUse">
<stop stop-color="#444B8C"/>
<stop offset="0.9964" stop-color="#26264F"/>
</linearGradient>
<linearGradient id="paint19_linear_271_3" x1="311.728" y1="641.042" x2="327.095" y2="624.823" gradientUnits="userSpaceOnUse">
<stop stop-color="#FFC444"/>
<stop offset="0.9964" stop-color="#F36F56"/>
</linearGradient>
<linearGradient id="paint20_linear_271_3" x1="332.552" y1="647.947" x2="353.98" y2="656.464" gradientUnits="userSpaceOnUse">
<stop stop-color="#444B8C"/>
<stop offset="0.9964" stop-color="#26264F"/>
</linearGradient>
<linearGradient id="paint21_linear_271_3" x1="345.856" y1="652.981" x2="361.222" y2="636.762" gradientUnits="userSpaceOnUse">
<stop stop-color="#FFC444"/>
<stop offset="0.9964" stop-color="#F36F56"/>
</linearGradient>
<linearGradient id="paint22_linear_271_3" x1="513.257" y1="556.052" x2="455.796" y2="483.217" gradientUnits="userSpaceOnUse">
<stop stop-color="#AA80F9"/>
<stop offset="0.9964" stop-color="#6165D7"/>
</linearGradient>
<linearGradient id="paint23_linear_271_3" x1="513.251" y1="553.781" x2="457.67" y2="483.329" gradientUnits="userSpaceOnUse">
<stop stop-color="#AA80F9"/>
<stop offset="0.9964" stop-color="#6165D7"/>
</linearGradient>
<linearGradient id="paint24_linear_271_3" x1="545.111" y1="524.913" x2="488.037" y2="452.569" gradientUnits="userSpaceOnUse">
<stop stop-color="#AA80F9"/>
<stop offset="0.9964" stop-color="#6165D7"/>
</linearGradient>
<linearGradient id="paint25_linear_271_3" x1="422.88" y1="635.142" x2="356.695" y2="529.191" gradientUnits="userSpaceOnUse">
<stop stop-color="#444B8C"/>
<stop offset="0.9964" stop-color="#26264F"/>
</linearGradient>
<linearGradient id="paint26_linear_271_3" x1="386.933" y1="540.121" x2="465.287" y2="648.898" gradientUnits="userSpaceOnUse">
<stop stop-color="#444B8C"/>
<stop offset="0.9964" stop-color="#26264F"/>
</linearGradient>
<linearGradient id="paint27_linear_271_3" x1="428.798" y1="572.891" x2="441.396" y2="537.16" gradientUnits="userSpaceOnUse">
<stop stop-color="#311944"/>
<stop offset="1" stop-color="#893976"/>
</linearGradient>
<linearGradient id="paint28_linear_271_3" x1="483.935" y1="521.134" x2="479.316" y2="553.076" gradientUnits="userSpaceOnUse">
<stop stop-color="#311944"/>
<stop offset="1" stop-color="#893976"/>
</linearGradient>
<linearGradient id="paint29_linear_271_3" x1="459.168" y1="528.132" x2="485.323" y2="528.132" gradientUnits="userSpaceOnUse">
<stop stop-color="#FFC444"/>
<stop offset="0.9964" stop-color="#F36F56"/>
</linearGradient>
<linearGradient id="paint30_linear_271_3" x1="392.237" y1="523.932" x2="416.81" y2="489.003" gradientUnits="userSpaceOnUse">
<stop stop-color="#444B8C"/>
<stop offset="0.9964" stop-color="#26264F"/>
</linearGradient>
<linearGradient id="paint31_linear_271_3" x1="439.438" y1="581.699" x2="385.677" y2="472.385" gradientUnits="userSpaceOnUse">
<stop stop-color="#311944"/>
<stop offset="1" stop-color="#893976"/>
</linearGradient>
<linearGradient id="paint32_linear_271_3" x1="465.744" y1="511.566" x2="347.44" y2="511.566" gradientUnits="userSpaceOnUse">
<stop stop-color="#311944"/>
<stop offset="1" stop-color="#893976"/>
</linearGradient>
<linearGradient id="paint33_linear_271_3" x1="454.124" y1="415.534" x2="500.914" y2="415.534" gradientUnits="userSpaceOnUse">
<stop stop-color="#FFC444"/>
<stop offset="0.9964" stop-color="#F36F56"/>
</linearGradient>
<linearGradient id="paint34_linear_271_3" x1="491.869" y1="429.748" x2="463.649" y2="390.693" gradientUnits="userSpaceOnUse">
<stop stop-color="#444B8C"/>
<stop offset="0.9964" stop-color="#26264F"/>
</linearGradient>
<linearGradient id="paint35_linear_271_3" x1="458.379" y1="409.709" x2="481.212" y2="409.709" gradientUnits="userSpaceOnUse">
<stop stop-color="#FFC444"/>
<stop offset="0.9964" stop-color="#F36F56"/>
</linearGradient>
<linearGradient id="paint36_linear_271_3" x1="487.175" y1="433.166" x2="458.928" y2="394.073" gradientUnits="userSpaceOnUse">
<stop stop-color="#444B8C"/>
<stop offset="0.9964" stop-color="#26264F"/>
</linearGradient>
</defs>
</svg>
